# xmcd
#
# Track frame offsets:
# 150
# 13175
# 28488
# 39120
# 52723
# 68809
# 82760
# 97545
# 111023
# 124515
# 133466
# 146809
# 159101
# 174601
# 185690
#
# Disc length: 2654 seconds
#
#
# Revision: 0
# Processed by: cddbd v1.5PL3 Copyright (c) Steve Scherf et al.
# Submitted via: FreeRIP 2.53 
#
DISCID=bc0a5c0f
DTITLE=Prairiw Wind - There Is Refuge In Jesus
DYEAR=1900
DGENRE=Bluegrass Gospel
TTITLE0=Cast the First Stone
TTITLE1=I Found A Friend
TTITLE2=Boundless Love
TTITLE3=But For The Blood
TTITLE4=Scarlet Purple Robe
TTITLE5=I'm Still On The Rock
TTITLE6=There's A Refuge In Jesus
TTITLE7=God's Big Hand
TTITLE8=The Hills Of Glory
TTITLE9=Take Me In The Lifeboat
TTITLE10=That Endless Day
TTITLE11=When Jesus Comes Down
TTITLE12=Wings Over Jordan
TTITLE13=Only The Blood Can Cover The Soul
TTITLE14=I Love God's Way Of Living
EXTD=
EXTT0=
EXTT1=
EXTT2=
EXTT3=
EXTT4=
EXTT5=
EXTT6=
EXTT7=
EXTT8=
EXTT9=
EXTT10=
EXTT11=
EXTT12=
EXTT13=
EXTT14=
PLAYORDER=
